<?xml version="1.0" encoding="UTF-8" standalone="no"?>
<!-- Created with Inkscape (http://www.inkscape.org/) -->

<svg
   xmlns:dc="http://purl.org/dc/elements/1.1/"
   xmlns:cc="http://creativecommons.org/ns#"
   xmlns:rdf="http://www.w3.org/1999/02/22-rdf-syntax-ns#"
   xmlns:svg="http://www.w3.org/2000/svg"
   xmlns="http://www.w3.org/2000/svg"
   xmlns:xlink="http://www.w3.org/1999/xlink"
   xmlns:sodipodi="http://sodipodi.sourceforge.net/DTD/sodipodi-0.dtd"
   xmlns:inkscape="http://www.inkscape.org/namespaces/inkscape"
   width="450.16989"
   height="478.26294"
   id="svg2385"
   sodipodi:version="0.32"
   inkscape:version="0.48.0 r9654"
   version="1.0"
   sodipodi:docname="logo.svg"
   inkscape:output_extension="org.inkscape.output.svg.inkscape"
   style="enable-background:new"
   inkscape:export-filename="/home/kratorius/development/nosport/icon_128.jpg.png"
   inkscape:export-xdpi="25.59"
   inkscape:export-ydpi="25.59">
  <defs
     id="defs2387">
    <linearGradient
       id="linearGradient3423">
      <stop
         style="stop-color:#6a6a6a;stop-opacity:1;"
         offset="0"
         id="stop3425" />
      <stop
         style="stop-color:#000000;stop-opacity:1;"
         offset="1"
         id="stop3427" />
    </linearGradient>
    <linearGradient
       id="linearGradient3413">
      <stop
         style="stop-color:#ffffff;stop-opacity:1;"
         offset="0"
         id="stop3415" />
      <stop
         id="stop3512"
         offset="0.47019866"
         style="stop-color:#ffffff;stop-opacity:1;" />
      <stop
         style="stop-color:#d6d6d6;stop-opacity:1;"
         offset="1"
         id="stop3417" />
    </linearGradient>
    <linearGradient
       inkscape:collect="always"
       id="linearGradient3520">
      <stop
         style="stop-color:#000000;stop-opacity:1;"
         offset="0"
         id="stop3522" />
      <stop
         style="stop-color:#000000;stop-opacity:0;"
         offset="1"
         id="stop3524" />
    </linearGradient>
    <linearGradient
       inkscape:collect="always"
       id="linearGradient3528">
      <stop
         style="stop-color:#000000;stop-opacity:1;"
         offset="0"
         id="stop3530" />
      <stop
         style="stop-color:#000000;stop-opacity:0;"
         offset="1"
         id="stop3532" />
    </linearGradient>
    <linearGradient
       id="linearGradient3536">
      <stop
         style="stop-color:#333333;stop-opacity:1;"
         offset="0"
         id="stop3538" />
      <stop
         style="stop-color:#000000;stop-opacity:0;"
         offset="1"
         id="stop3540" />
    </linearGradient>
    <radialGradient
       inkscape:collect="always"
       xlink:href="#linearGradient3423"
       id="radialGradient3988"
       gradientUnits="userSpaceOnUse"
       gradientTransform="matrix(0.8383257,0,0,0.8383257,211.22283,370.35026)"
       cx="317.61365"
       cy="207.49344"
       fx="317.61365"
       fy="207.49344"
       r="245.83293" />
    <radialGradient
       inkscape:collect="always"
       xlink:href="#linearGradient3413"
       id="radialGradient3990"
       gradientUnits="userSpaceOnUse"
       gradientTransform="matrix(1,0,0,1.0000694,167.18189,-512.69731)"
       cx="311.42657"
       cy="1062.9181"
       fx="311.42657"
       fy="1062.9181"
       r="225.0625" />
    <linearGradient
       inkscape:collect="always"
       xlink:href="#linearGradient3520"
       id="linearGradient3992"
       gradientUnits="userSpaceOnUse"
       gradientTransform="matrix(0.9741024,0,0,0.9741024,179.46599,-490.16078)"
       x1="350.87286"
       y1="1121.9573"
       x2="468.47543"
       y2="1143.9006" />
    <linearGradient
       inkscape:collect="always"
       xlink:href="#linearGradient3528"
       id="linearGradient3994"
       gradientUnits="userSpaceOnUse"
       gradientTransform="matrix(0.9748046,0,0,0.9748046,173.33769,-492.30712)"
       x1="237.34625"
       y1="1070.5031"
       x2="125.4752"
       y2="1026.626" />
    <linearGradient
       inkscape:collect="always"
       xlink:href="#linearGradient3536"
       id="linearGradient3996"
       gradientUnits="userSpaceOnUse"
       gradientTransform="matrix(0.8783493,0,0,0.8783493,218.71638,-432.34392)"
       x1="299.17374"
       y1="952.46429"
       x2="320.48227"
       y2="882.12744" />
  </defs>
  <sodipodi:namedview
     id="base"
     pagecolor="#ffffff"
     bordercolor="#666666"
     borderopacity="1.0"
     inkscape:pageopacity="0.0"
     inkscape:pageshadow="2"
     inkscape:zoom="0.7841484"
     inkscape:cx="346.77359"
     inkscape:cy="267.66134"
     inkscape:document-units="px"
     inkscape:current-layer="layer1"
     showgrid="false"
     inkscape:window-width="1280"
     inkscape:window-height="945"
     inkscape:window-x="0"
     inkscape:window-y="25"
     height="449.16989px"
     width="450.17px"
     inkscape:window-maximized="1" />
  <metadata
     id="metadata2390">
    <rdf:RDF>
      <cc:Work
         rdf:about="">
        <dc:format>image/svg+xml</dc:format>
        <dc:type
           rdf:resource="http://purl.org/dc/dcmitype/StillImage" />
        <dc:title></dc:title>
      </cc:Work>
    </rdf:RDF>
  </metadata>
  <g
     inkscape:label="Ebene 1"
     inkscape:groupmode="layer"
     id="layer1"
     transform="translate(-236.97296,-366.478)">
    <g
       id="g3963"
       transform="matrix(0.72237961,0,0,0.72237961,106.59713,215.24069)">
      <path
         id="path3382"
         d="m 687.14286,591.56295 c 0,124.24689 -100.83806,225.08495 -225.08495,225.08495 -124.2469,0 -225.08495,-100.83806 -225.08495,-225.08495 0,-124.2469 100.83805,-225.08495 225.08495,-225.08495 124.24689,0 225.08495,100.83805 225.08495,225.08495 z"
         style="fill:url(#radialGradient3988);fill-opacity:1;fill-rule:evenodd;stroke:none;stroke-width:5.57342529;marker:none;visibility:visible;display:inline;overflow:visible;enable-background:accumulate"
         inkscape:connector-curvature="0" />
      <path
         sodipodi:nodetypes="ccccsccccccccsccscscccccscscscccsccsccscccccscscsccscscscccsc"
         id="path3400"
         d="m 462.04847,366.48162 c -49.12805,0 -94.57643,15.78496 -131.59375,42.53125 -16.11579,19.48961 -27.40625,39 -27.40625,39 l -20.5625,7.875 c -28.55882,37.73568 -45.5,84.74822 -45.5,135.6875 0,4.75815 0.14614,9.47117 0.4375,14.15625 5.11583,9.13972 8.9375,14.96874 8.9375,14.96875 l -2.625,25.6875 c 14.70149,58.67954 52.4553,108.24261 103.0625,138.5 3.61585,2.3383 6.63613,3.7538 9.95419,5.6308 -1.76052,-1.6631 -2.30279,-2.108 -3.45419,-3.162 -13.2473,-13.7018 -24.40625,-29.7188 -24.40625,-29.7188 l 32.03125,-29.46875 c 10e-6,10e-6 20.59409,15.56507 43.71875,23.625 23.12467,8.05995 48.78125,8.62495 48.78125,8.62495 l 15.875,40.75 c 0,0 -14.02787,7.1945 -33.9375,10.7188 -3.56519,0.6311 -7.333,1.1444 -11.09375,1.5625 12.288,2.0813 24.90327,3.1875 37.78125,3.1875 52.04257,0 99.99002,-17.684 138.125,-47.375 11.92991,-15.98524 19.75001,-29.71876 19.75,-29.71875 l 17.375,-6.8125 c 30.83273,-38.2231 49.436,-86.71943 49.8125,-139.53125 -6.12407,-18.15827 -12.81249,-28.81248 -12.8125,-28.8125 0,0 1.70719,-16.58244 -0.69064,-34.84754 -0.37624,-2.86596 1.54952,-1.846 3.86731,-3.40223 -0.68742,-2.5948 -3.18496,-10.30609 -4.44499,-13.98838 -4.96028,-14.49589 -9.83936,-21.41177 -13.04418,-27.82435 6.24328,3.48764 -0.0245,-0.0189 -0.0312,-0.0312 C 621.82436,414.13136 547.46821,366.48161 462.04847,366.48162 z m 27.21875,8.5625 c 18.70387,0.25577 38.21875,6.3125 38.21875,6.3125 -10e-6,-3e-5 22.17311,8.52059 38,20.5625 15.8269,12.0419 25.3125,27.59375 25.3125,27.59375 l -40.25,27.8125 c 1e-5,-3e-5 -21.66626,-14.84249 -44.3125,-22.84375 -22.64623,-8.00125 -46.28125,-9.15625 -46.28125,-9.15625 l -11.40625,-41.53125 c -1e-5,0 17.2634,-8.11024 37,-8.71875 1.23354,-0.038 2.47183,-0.0483 3.71875,-0.0312 z m -131.53125,111.1875 c 13.82046,0.0635 25.3125,1.71875 25.3125,1.71875 l 20.8125,88.4375 -66.8125,63.625 c 0,0 -20.86317,-13.23662 -35.90625,-26.1875 -15.04308,-12.95088 -24.28125,-25.625 -24.28125,-25.625 10e-6,0 2.71584,-25.65389 8.84375,-47.71875 6.12791,-22.06487 15.6875,-40.53125 15.6875,-40.53125 10e-6,10e-6 16.51864,-9.50668 36.9375,-12.5 6.38089,-0.93542 13.12422,-1.24761 19.40625,-1.21875 z m 216.53125,63.15625 c -10e-6,0 18.83767,8.25331 34.03125,20.40625 15.19356,12.15293 26.75,28.21875 26.75,28.21875 0,0 -1.07773,22.00055 -8.34375,44.875 -7.26606,22.87442 -20.71875,46.625 -20.71875,46.625 -10e-6,-2e-5 -18.77755,6.89075 -38.59375,8.75 -19.81621,1.85925 -40.6875,-1.3125 -40.6875,-1.3125 l -10.34375,-43.28125 -10.65625,-44.5 c 0,0 14.14166,-17.05226 31.28125,-32 17.13958,-14.94775 37.28125,-27.78125 37.28125,-27.78125 z"
         style="fill:url(#radialGradient3990);fill-opacity:1;fill-rule:evenodd;stroke:none;stroke-width:5.10303545;marker:none;visibility:visible;display:inline;overflow:visible;enable-background:accumulate"
         inkscape:connector-curvature="0" />
      <path
         style="fill:none;stroke:url(#linearGradient3992);stroke-width:4.87051201;stroke-linecap:butt;stroke-linejoin:round;stroke-miterlimit:4;stroke-opacity:1;stroke-dashoffset:0;marker:none;visibility:visible;display:inline;overflow:visible;enable-background:accumulate"
         d="m 633.37377,598.67637 c 0,0 -1.05853,21.44345 -8.13637,43.7255 -7.07787,22.28204 -20.17505,45.40273 -20.17505,45.40273 0,0 -18.2965,6.72426 -37.5995,8.53537 -19.30303,1.81108 -39.61253,-1.29098 -39.61253,-1.29098 L 517.76194,652.89888 507.3905,609.56607 c 0,0 13.77207,-16.63224 30.46778,-31.19286 16.6957,-14.56064 36.31506,-27.04965 36.31506,-27.04965 0,0 18.34722,8.05197 33.14732,19.89019 14.80012,11.8382 26.05311,27.46262 26.05311,27.46262 z"
         id="path3514"
         sodipodi:nodetypes="cscscccscsc"
         inkscape:connector-curvature="0" />
      <path
         style="fill:none;stroke:url(#linearGradient3994);stroke-width:4.87402344;stroke-linecap:butt;stroke-linejoin:round;stroke-miterlimit:4;stroke-opacity:1;stroke-dashoffset:0;marker:none;visibility:visible;display:inline;overflow:visible;enable-background:accumulate"
         d="m 337.13219,638.06303 c 0,0 -20.33709,-12.90572 -35.00115,-25.5303 -14.66406,-12.62458 -23.6551,-24.96801 -23.6551,-24.96801 0,0 2.63677,-24.99641 8.61028,-46.50533 5.97351,-21.50895 15.28378,-39.5304 15.28378,-39.5304 0,0 16.09843,-9.25504 36.00283,-12.17294 19.9044,-2.91792 43.61477,0.50133 43.61477,0.50133 l 20.2793,86.21081 -65.13471,61.99484 z"
         id="path3516"
         sodipodi:nodetypes="cscscsccc"
         inkscape:connector-curvature="0" />
      <path
         style="fill:none;stroke:url(#linearGradient3996);stroke-width:5.01581049;stroke-linecap:butt;stroke-linejoin:miter;stroke-miterlimit:4;stroke-opacity:1;stroke-dashoffset:0;marker:none;visibility:visible;display:inline;overflow:visible;enable-background:accumulate"
         d="m 526.54287,385.59247 c 0,0 19.46417,7.49626 33.36569,18.07324 13.90152,10.57698 22.24039,24.23473 22.24039,24.23473 l -35.3569,24.43107 c 0,0 -19.03147,-13.05403 -38.92281,-20.08194 -19.89128,-7.02791 -47.71344,-9.79746 -47.71344,-9.79746 l -9.3194,-36.84304 c 0,0 19.39501,-6.76894 36.73059,-7.30338 17.33567,-0.53453 38.97588,7.28678 38.97588,7.28678 z"
         id="path3518"
         sodipodi:nodetypes="csccscczc"
         inkscape:connector-curvature="0" />
      <path
         sodipodi:nodetypes="cc"
         style="fill:none;stroke:#666666;stroke-width:1px;stroke-linecap:butt;stroke-linejoin:miter;stroke-opacity:1"
         d="m 382.00558,489.15386 c 0,0 36.18673,-48.08059 78.43673,-64.33059"
         id="path3479"
         inkscape:connector-curvature="0" />
      <path
         id="path3506"
         d="m 552.77779,456.09916 c 0,0 26.98483,42.92633 23.48483,91.92633"
         style="fill:none;stroke:#ececec;stroke-width:3;stroke-linecap:butt;stroke-linejoin:miter;stroke-miterlimit:4;stroke-opacity:1;stroke-dasharray:none"
         sodipodi:nodetypes="cs"
         inkscape:connector-curvature="0" />
      <path
         sodipodi:nodetypes="cs"
         style="fill:none;stroke:#666666;stroke-width:1px;stroke-linecap:butt;stroke-linejoin:miter;stroke-opacity:1"
         d="m 550.3743,456.61356 c 0,0 27.57582,44.37608 24.07582,93.37608"
         id="path3481"
         inkscape:connector-curvature="0" />
      <path
         sodipodi:nodetypes="cs"
         style="fill:none;stroke:#666666;stroke-width:1px;stroke-linecap:butt;stroke-linejoin:miter;stroke-opacity:1"
         d="m 587.79847,429.25005 c 0,0 59.78332,23.59995 86.03332,98.34995"
         id="path3483"
         inkscape:connector-curvature="0" />
      <path
         sodipodi:nodetypes="cc"
         style="fill:none;stroke:#666666;stroke-width:1px;stroke-linecap:butt;stroke-linejoin:miter;stroke-opacity:1"
         d="m 635.41698,597.88856 c 0,0 21.04441,-1.63477 39.42918,-32.74745"
         id="path3485"
         inkscape:connector-curvature="0" />
      <path
         sodipodi:nodetypes="cc"
         style="fill:none;stroke:#666666;stroke-width:1px;stroke-linecap:butt;stroke-linejoin:miter;stroke-opacity:1"
         d="m 620.39371,739.32037 c 0,0 2.92081,-18.12891 -14.52125,-50.95295"
         id="path3487"
         inkscape:connector-curvature="0" />
      <path
         sodipodi:nodetypes="cc"
         style="fill:none;stroke:#666666;stroke-width:1px;stroke-linecap:butt;stroke-linejoin:miter;stroke-opacity:1"
         d="m 453.66772,760.93427 c 0,0 32.35014,-8.57367 73.36233,-65.14227"
         id="path3489"
         inkscape:connector-curvature="0" />
      <path
         sodipodi:nodetypes="cc"
         style="fill:none;stroke:#666666;stroke-width:1px;stroke-linecap:butt;stroke-linejoin:miter;stroke-opacity:1"
         d="m 336.81833,639.22348 c 0,0 -1.94454,50.38132 23.15775,89.97932"
         id="path3491"
         inkscape:connector-curvature="0" />
      <path
         sodipodi:nodetypes="cc"
         style="fill:none;stroke:#666666;stroke-width:1px;stroke-linecap:butt;stroke-linejoin:miter;stroke-opacity:1"
         d="m 328.87631,757.90465 c 0,0 -7.42957,0.0924 -35.54505,-16.85775"
         id="path3493"
         inkscape:connector-curvature="0" />
      <path
         sodipodi:nodetypes="cc"
         style="fill:none;stroke:#666666;stroke-width:1px;stroke-linecap:butt;stroke-linejoin:miter;stroke-opacity:1"
         d="m 277.33297,588.13499 c 0,0 -20.14855,8.46346 -31.00149,31.91127"
         id="path3495"
         inkscape:connector-curvature="0" />
      <path
         sodipodi:nodetypes="cc"
         style="fill:none;stroke:#666666;stroke-width:1px;stroke-linecap:butt;stroke-linejoin:miter;stroke-opacity:1"
         d="m 302.69795,448.248 c 0,0 -7.23157,27.91231 -0.94794,51.36314"
         id="path3497"
         inkscape:connector-curvature="0" />
      <path
         sodipodi:nodetypes="cs"
         style="fill:none;stroke:#666666;stroke-width:1px;stroke-linecap:butt;stroke-linejoin:miter;stroke-opacity:1"
         d="m 326.91884,412.59576 c 0,0 60.05418,-50.89505 121.21891,-28.26764"
         id="path3499"
         inkscape:connector-curvature="0" />
      <path
         style="fill:none;stroke:#666666;stroke-width:1px;stroke-linecap:butt;stroke-linejoin:miter;stroke-opacity:1"
         d="m 469.14956,801.21746 c 0,0 52.38635,13.45104 133.18737,-34.23303"
         id="path3501"
         sodipodi:nodetypes="cs"
         inkscape:connector-curvature="0" />
      <path
         id="path3504"
         d="m 382.20012,485.5451 c 0,0 30.09054,-41.4415 74.34054,-61.3165"
         style="fill:none;stroke:#f2f2f2;stroke-width:3;stroke-linecap:square;stroke-linejoin:miter;stroke-miterlimit:4;stroke-opacity:1;stroke-dasharray:none"
         sodipodi:nodetypes="cc"
         inkscape:connector-curvature="0" />
      <path
         id="path3508"
         d="m 454.49019,762.66727 c 0,0 30.8224,-5.9461 71.83459,-62.51467"
         style="fill:none;stroke:#ffffff;stroke-width:3;stroke-linecap:butt;stroke-linejoin:miter;stroke-miterlimit:4;stroke-opacity:1;stroke-dasharray:none"
         sodipodi:nodetypes="cc"
         inkscape:connector-curvature="0" />
      <path
         id="path3510"
         d="m 334.79244,640.34296 c 0,0 -1.94454,50.39572 23.15775,89.99372"
         style="fill:none;stroke:#ffffff;stroke-width:3;stroke-linecap:butt;stroke-linejoin:miter;stroke-miterlimit:4;stroke-opacity:1;stroke-dasharray:none"
         sodipodi:nodetypes="cc"
         inkscape:connector-curvature="0" />
      <path
         sodipodi:nodetypes="cc"
         id="path2453"
         d="m 404.34702,576.55614 c 0,0 26.33973,6.18718 101.29305,32.70369"
         style="fill:none;stroke:#999999;stroke-width:1px;stroke-linecap:butt;stroke-linejoin:miter;stroke-miterlimit:4;stroke-opacity:1;stroke-dasharray:none;stroke-dashoffset:0;marker:none;visibility:visible;display:inline;overflow:visible;enable-background:accumulate"
         inkscape:connector-curvature="0" />
      <path
         style="fill:none;stroke:#ececec;stroke-width:1px;stroke-linecap:butt;stroke-linejoin:miter;stroke-miterlimit:4;stroke-opacity:1;stroke-dasharray:none;stroke-dashoffset:0;marker:none;visibility:visible;display:inline;overflow:visible;enable-background:accumulate"
         d="m 404.34702,575.28087 c 0,0 26.33973,6.18718 101.29305,32.70369"
         id="path3260"
         sodipodi:nodetypes="cc"
         inkscape:connector-curvature="0" />
    </g>
    <path
       sodipodi:type="arc"
       style="fill:none;stroke:#da0000;stroke-width:90;stroke-linejoin:round;stroke-miterlimit:4;stroke-opacity:1;stroke-dasharray:none"
       id="path3193"
       sodipodi:cx="300.96344"
       sodipodi:cy="299.72531"
       sodipodi:rx="252.50322"
       sodipodi:ry="252.50322"
       d="m 553.46666,299.72531 a 252.50322,252.50322 0 1 1 -505.00644,0 252.50322,252.50322 0 1 1 505.00644,0 z"
       transform="matrix(0.74280572,0,0,0.74280572,235.31238,382.35274)" />
    <rect
       style="fill:#da0000;fill-opacity:1;stroke:none"
       id="rect3998"
       width="354.52472"
       height="70.139793"
       x="-313.4129"
       y="717.13068"
       transform="matrix(0.67701531,-0.73596894,0.73596894,0.67701531,0,0)" />
  </g>
</svg>
